<?xml version="1.0" standalone="no"?>
<!DOCTYPE svg PUBLIC "-//W3C//DTD SVG 20010904//EN"
 "http://www.w3.org/TR/2001/REC-SVG-20010904/DTD/svg10.dtd">
<svg version="1.0" xmlns="http://www.w3.org/2000/svg"
 width="300.000000pt" height="207.000000pt" viewBox="0 0 300.000000 207.000000"
 preserveAspectRatio="xMidYMid meet">
<metadata>
Created by potrace 1.10, written by Peter Selinger 2001-2011
</metadata>
<g transform="translate(0.000000,207.000000) scale(0.100000,-0.100000)"
fill="#000000" stroke="none">
<path d="M1595 2029 c2 -26 4 -27 60 -34 28 -4 81 -15 119 -26 37 -10 71 -18
75 -17 3 1 23 -6 43 -15 44 -20 74 -22 81 -4 4 10 6 10 6 0 1 -7 9 -13 19 -13
16 0 327 -77 402 -99 19 -6 44 -11 55 -10 20 0 20 0 0 8 -39 16 -122 41 -235
70 -159 42 -159 42 -154 55 5 13 -171 54 -182 43 -3 -3 15 -9 41 -12 58 -9
137 -33 110 -34 -11 -1 -56 8 -100 18 -44 10 -123 26 -175 36 -52 9 -106 20
-120 23 -25 6 -25 6 -2 10 12 2 63 -6 111 -17 49 -12 97 -21 107 -20 29 1
-155 46 -212 51 -44 4 -50 2 -49 -13z m330 -89 c3 -6 -1 -7 -9 -4 -18 7 -21
14 -7 14 6 0 13 -4 16 -10z"/>
<path d="M1475 2023 c-45 -11 -184 -63 -245 -92 -36 -17 -71 -31 -78 -31 -49
0 -290 -160 -430 -286 -104 -94 -342 -382 -342 -415 0 -4 -29 -62 -65 -128
-80 -146 -127 -279 -130 -376 -1 -22 -5 -47 -8 -55 -15 -42 -15 -63 2 -82 18
-19 19 -18 24 44 11 146 42 245 136 433 143 286 323 501 566 676 154 110 172
120 290 169 238 98 311 117 370 96 20 -8 20 -7 1 8 -30 24 -76 19 -183 -18
-175 -61 -304 -120 -391 -179 -24 -16 -46 -26 -49 -23 -7 7 100 76 152 98 67
28 227 94 285 118 30 12 83 24 118 27 40 4 59 9 50 14 -14 9 -40 10 -73 2z
m-535 -267 c0 -2 -39 -33 -88 -69 -107 -79 -262 -239 -362 -373 -84 -112 -241
-412 -265 -504 -7 -30 -14 -46 -14 -34 -2 42 51 170 124 304 41 76 75 141 75
145 0 18 224 287 301 361 85 82 229 189 229 170z m-735 -1046 c-9 -41 -17 -33
-9 9 4 17 9 30 11 27 3 -2 2 -19 -2 -36z m-18 -117 c-3 -10 -5 -4 -5 12 0 17
2 24 5 18 2 -7 2 -21 0 -30z"/>
<path d="M1438 1942 c-16 -9 -28 -20 -28 -25 0 -4 11 0 25 9 15 10 25 12 25 5
0 -6 -4 -11 -10 -11 -5 0 -10 -4 -10 -10 0 -25 26 -7 28 20 1 17 1 30 0 30 -2
0 -15 -8 -30 -18z"/>
<path d="M2085 1943 c11 -11 136 -46 141 -40 3 2 -22 12 -53 21 -89 27 -99 29
-88 19z"/>
<path d="M2487 1892 c8 -21 23 -32 43 -31 8 0 4 5 -10 11 -15 6 -20 12 -12 15
18 7 14 19 -7 20 -15 1 -18 -3 -14 -15z"/>
<path d="M1422 1888 c-28 -28 2 -35 58 -13 9 3 25 -4 38 -15 16 -15 27 -18 39
-12 10 6 38 13 62 17 38 6 43 5 38 -9 -15 -38 1 -46 98 -46 52 0 97 -4 100
-10 3 -5 12 -10 20 -10 8 0 31 -11 51 -25 25 -17 50 -25 78 -24 50 0 120 -7
161 -16 23 -6 27 -5 19 5 -7 6 -41 16 -75 21 -35 5 -84 12 -109 15 -25 4 -52
12 -60 19 -21 18 -90 40 -125 41 -127 2 -131 3 -132 26 -1 11 -7 24 -13 28
-11 7 -93 -4 -111 -15 -5 -4 -9 1 -9 9 0 9 -4 16 -10 16 -5 0 -10 -5 -10 -12
0 -6 -8 -4 -19 6 -14 13 -24 14 -44 7 -17 -7 -27 -7 -29 0 -2 6 -8 5 -16 -3z"/>
<path d="M2255 1893 c23 -5 213 -62 235 -70 8 -3 23 -5 32 -4 52 6 225 -68
269 -116 58 -62 84 -203 67 -366 -18 -178 -67 -312 -178 -478 -45 -69 -204
-245 -235 -262 -11 -6 25 39 81 99 218 235 303 417 319 679 7 115 -8 223 -40
284 -28 56 -119 110 -218 131 -61 13 -195 -1 -264 -29 -47 -18 -162 -76 -208
-104 -162 -98 -336 -270 -449 -443 -43 -65 -86 -130 -95 -144 -89 -133 -194
-442 -227 -670 -9 -63 -20 -124 -24 -136 -5 -12 -6 -31 -4 -42 5 -15 -1 -20
-26 -26 -17 -3 -40 -1 -50 4 -10 6 -34 10 -54 10 -19 0 -36 4 -38 8 -1 4 -52
22 -113 40 -99 29 -181 55 -370 120 -33 11 -85 28 -115 36 -71 20 -177 53
-265 82 -44 14 -74 19 -79 13 -6 -5 -21 -9 -34 -9 -17 0 -23 -5 -20 -17 2 -12
20 -21 58 -30 29 -6 58 -9 62 -7 4 3 8 0 8 -5 0 -6 8 -11 18 -11 22 0 211 -49
232 -60 8 -4 29 -11 45 -14 69 -13 420 -125 423 -135 2 -6 8 -11 13 -11 6 0 7
4 4 10 -3 5 1 10 9 10 10 0 13 -6 9 -17 -5 -13 -1 -15 23 -10 36 7 86 -2 78
-15 -3 -5 4 -6 18 -3 13 3 50 0 83 -8 77 -17 99 -11 102 28 2 29 19 120 49
260 47 213 166 485 294 674 44 65 92 128 105 141 14 13 25 29 25 35 0 13 113
125 126 125 4 0 -19 -29 -52 -63 -198 -213 -346 -471 -449 -782 -30 -92 -85
-362 -84 -411 1 -33 3 -30 11 21 68 438 186 721 441 1058 32 42 77 96 100 118
23 22 42 48 42 57 0 9 8 17 17 17 28 0 43 21 28 39 -12 15 -35 13 -26 -2 2 -4
-9 -17 -24 -29 -24 -19 -27 -20 -26 -5 2 26 146 148 160 135 3 -4 6 -1 6 6 0
9 38 32 60 35 3 1 24 16 47 34 22 17 47 32 55 32 8 0 18 3 22 8 4 4 11 7 14 8
4 0 20 6 35 12 16 7 30 12 32 12 10 0 13 -33 5 -59 -7 -24 -5 -29 6 -24 8 3
11 9 8 14 -3 6 -1 16 6 24 7 9 8 15 0 20 -19 12 -10 33 18 39 48 11 162 23
167 18 3 -3 19 -7 37 -9 17 -2 40 -11 51 -21 10 -9 22 -16 26 -15 17 6 50 -11
54 -27 6 -24 -3 -71 -13 -65 -4 3 -11 -10 -15 -28 -4 -17 -9 -37 -10 -43 -5
-22 -53 -90 -84 -119 -37 -35 -62 -79 -86 -155 -10 -30 -22 -60 -27 -66 -18
-24 21 -22 47 2 14 13 30 24 35 24 13 0 138 129 172 178 36 52 53 103 32 95
-9 -3 -14 2 -15 18 0 13 -5 33 -10 44 -7 14 -8 7 -4 -25 3 -25 10 -46 14 -48
12 -4 -13 -53 -44 -86 -14 -15 -25 -29 -25 -32 0 -3 -19 -24 -41 -47 -26 -26
-43 -37 -46 -29 -3 6 -9 9 -15 6 -7 -4 -6 -9 1 -13 8 -5 5 -13 -9 -26 -18 -16
-20 -16 -20 -2 0 10 3 17 8 17 4 0 6 18 4 41 -4 36 0 45 34 80 33 34 39 37 45
22 4 -10 3 -25 -2 -34 -5 -11 -3 -16 7 -16 11 0 13 10 8 49 -4 31 -3 48 4 48
6 0 16 16 23 35 7 19 17 35 22 35 8 0 3 -55 -9 -92 -3 -10 -1 -18 5 -18 13 0
14 5 17 100 3 96 5 110 17 103 5 -3 7 -13 4 -23 -3 -12 0 -17 7 -14 7 3 19
-18 30 -55 17 -56 17 -62 1 -95 -30 -62 -141 -182 -230 -248 -85 -62 -88 -65
-144 -175 -32 -62 -54 -113 -48 -113 5 0 27 13 50 28 87 59 178 107 294 153
17 7 29 17 27 21 -3 4 2 8 11 8 13 0 14 -4 5 -21 -6 -11 -19 -23 -28 -26 -43
-14 -152 -68 -207 -101 -33 -20 -86 -50 -118 -67 -32 -16 -66 -43 -77 -60 -24
-36 -96 -132 -163 -215 -27 -33 -44 -60 -38 -60 5 0 19 13 31 29 32 46 214
181 323 240 71 38 179 83 185 76 7 -7 -19 -35 -33 -35 -22 0 -158 -60 -210
-92 -136 -86 -304 -235 -389 -345 -31 -40 -52 -73 -48 -73 4 0 32 25 62 56 70
72 193 152 340 222 116 56 218 131 245 182 8 14 14 19 15 12 0 -12 -96 -122
-140 -160 -8 -7 -42 -26 -75 -43 -153 -79 -285 -166 -410 -270 -91 -76 -134
-119 -117 -119 6 0 16 9 22 19 12 23 148 94 167 87 18 -7 181 92 265 161 38
30 70 54 73 52 8 -8 -127 -115 -208 -165 -287 -176 -355 -232 -398 -327 -7
-15 -16 -27 -20 -27 -13 0 49 101 84 139 18 18 69 58 114 87 91 59 124 94 47
49 -143 -83 -204 -137 -245 -217 -16 -32 -34 -58 -40 -58 -11 0 43 105 92 178
16 24 29 46 29 50 0 4 17 30 39 58 21 28 40 55 42 61 4 11 90 128 224 305 50
65 109 149 132 186 134 211 273 591 273 745 0 60 2 65 20 60 21 -6 26 -18 11
-27 -5 -4 -8 -25 -7 -49 2 -23 -1 -53 -6 -66 -6 -16 -5 -27 3 -31 8 -6 8 -9 0
-14 -13 -8 -43 -77 -37 -83 2 -3 12 8 22 24 9 15 27 44 39 63 27 43 45 95 45
128 0 25 -12 24 -16 -1 -5 -32 -25 -68 -34 -62 -5 3 -10 8 -10 11 0 3 4 3 9
-1 11 -6 21 42 19 92 -1 32 -8 38 -56 48 -14 2 -19 -1 -17 -13 1 -9 -2 -20 -8
-24 -10 -6 -11 -96 -1 -133 4 -16 3 -17 -5 -5 -7 10 -11 11 -11 3 0 -7 -7 -13
-15 -13 -8 0 -13 6 -11 13 1 6 1 9 -1 5 -3 -5 -9 -8 -14 -8 -6 0 -7 4 -4 10 3
6 -1 7 -9 4 -21 -8 -20 -22 0 -26 9 -2 22 -21 30 -43 12 -35 11 -47 -3 -98
-18 -67 -27 -65 -68 16 -18 38 -25 68 -26 116 -1 47 -3 59 -9 41 -11 -36 0
-160 18 -195 8 -16 23 -40 34 -52 l20 -21 -32 -87 -33 -86 -28 27 c-37 35 -84
103 -76 110 3 3 11 -5 18 -18 20 -38 70 -98 82 -98 6 0 -1 12 -15 28 -14 15
-39 48 -56 74 -29 47 -42 52 -42 16 0 -22 46 -92 83 -127 l26 -23 -25 -56
c-14 -31 -27 -58 -29 -60 -5 -5 -64 31 -91 55 -28 26 -62 117 -79 209 -16 94
-26 264 -14 264 11 0 17 -25 24 -105 9 -93 22 -142 40 -149 18 -6 20 20 5 59
-5 14 -11 39 -12 55 -1 16 -6 26 -10 24 -4 -3 -8 -1 -8 5 0 5 5 13 10 16 6 3
10 12 10 18 0 7 -4 6 -11 -3 -8 -12 -9 -11 -5 5 3 11 -1 41 -8 67 -8 25 -12
49 -9 52 4 3 1 6 -6 6 -8 0 -11 -8 -8 -20 3 -11 1 -18 -3 -15 -5 3 -14 3 -22
0 -19 -8 -6 -248 19 -342 11 -40 15 -73 11 -73 -5 0 -6 -5 -3 -10 4 -6 10 -8
15 -5 4 3 11 -2 14 -11 3 -9 2 -12 -5 -8 -6 3 6 -17 26 -45 20 -28 40 -51 43
-51 4 0 17 -9 30 -18 l24 -18 -43 -62 c-24 -34 -46 -62 -51 -62 -18 0 -83 78
-105 127 -27 59 -54 163 -46 176 2 4 14 5 25 1 19 -6 20 -3 15 32 -2 22 -8 50
-12 64 -6 24 -6 24 9 6 9 -11 18 -17 20 -15 3 3 -1 42 -9 88 -18 99 -11 219
13 239 14 11 14 12 -1 12 -9 0 -17 -4 -17 -8 0 -5 -8 -17 -17 -28 -22 -24 -27
-70 -6 -52 11 8 12 7 7 -6 -3 -9 -10 -16 -15 -16 -5 0 -9 -27 -9 -61 0 -37 4
-58 10 -54 6 3 10 -1 10 -10 0 -9 -4 -13 -10 -10 -5 3 -10 1 -10 -4 0 -6 4
-11 9 -11 17 0 21 -32 7 -52 -9 -13 -13 -32 -9 -50 5 -28 -6 -47 -28 -48 -15
0 -33 105 -33 198 1 47 -14 39 -21 -12 -5 -28 0 -82 14 -154 25 -131 44 -188
72 -216 26 -27 71 -97 66 -103 -3 -2 -19 19 -36 46 -33 54 -51 70 -27 24 23
-44 63 -94 88 -111 22 -15 22 -14 -2 13 l-25 29 25 -15 c14 -9 31 -19 38 -23
9 -5 2 -20 -25 -53 -21 -25 -68 -89 -105 -142 -37 -53 -74 -105 -83 -116 -9
-11 -35 -46 -58 -77 -23 -31 -44 -54 -48 -50 -3 4 -20 50 -37 102 -33 100 -54
290 -32 290 5 0 10 -7 10 -16 0 -8 5 -12 10 -9 6 4 10 -8 10 -29 0 -34 101
-248 108 -228 1 5 -17 49 -42 98 -34 66 -51 117 -67 199 -23 117 -28 247 -10
253 6 2 11 10 11 17 0 8 5 17 12 21 8 5 9 2 5 -9 -3 -10 -2 -17 3 -17 6 0 10
-5 10 -11 0 -5 -5 -7 -11 -4 -13 9 -3 -55 17 -104 8 -19 12 -37 9 -40 -8 -8
-25 20 -25 42 0 26 -18 57 -33 57 -8 0 -9 -3 -1 -8 6 -4 16 -60 22 -124 12
-114 35 -191 84 -284 19 -34 48 -63 48 -46 0 6 -5 14 -11 18 -15 9 -88 169
-99 218 -6 28 -5 43 2 47 6 4 8 19 6 33 -6 29 -4 30 23 16 22 -13 24 -3 9 50
-9 31 -19 83 -36 191 -3 22 -1 40 5 44 7 4 11 -3 11 -17 0 -37 29 -171 44
-203 7 -16 23 -55 35 -85 28 -71 103 -198 108 -183 3 7 -7 27 -21 46 -35 46
-97 184 -90 201 7 17 -13 117 -31 161 -7 16 -18 50 -25 74 -9 34 -14 41 -22
30 -7 -10 -8 -8 -3 8 3 12 8 32 10 44 3 12 8 25 13 28 5 3 9 13 9 21 1 8 8 31
16 50 13 28 16 30 17 13 0 -12 -4 -24 -9 -27 -5 -4 -8 -27 -6 -52 2 -38 0 -44
-14 -40 -12 5 -11 2 3 -9 14 -10 17 -18 10 -25 -17 -17 18 -130 38 -130 7 0 8
21 2 63 -14 105 -10 247 6 257 8 5 11 12 8 16 -9 9 28 105 44 116 9 5 9 8 1 8
-11 0 -53 -51 -53 -65 0 -4 -9 -20 -20 -35 -43 -60 -166 -394 -204 -550 -40
-171 -45 -451 -10 -585 18 -72 18 -105 -2 -133 -8 -12 -23 -46 -34 -76 -18
-54 -18 -54 2 -59 34 -9 62 12 93 70 40 77 72 106 219 198 244 153 272 172
376 267 270 245 388 443 426 716 22 159 8 287 -40 381 -33 63 -163 130 -288
151 -35 5 -106 23 -158 40 -51 16 -105 29 -119 29 -20 -1 -22 -2 -6 -6z m383
-244 c-3 -8 -7 -3 -11 10 -4 17 -3 21 5 13 5 -5 8 -16 6 -23z m152 -28 c0 -9
-9 -2 -20 17 -26 42 -26 51 0 22 11 -13 20 -30 20 -39z m-140 -45 c0 -3 -4 -8
-10 -11 -5 -3 -10 -1 -10 4 0 6 5 11 10 11 6 0 10 -2 10 -4z m158 -163 c-6
-27 -10 -61 -9 -77 1 -15 -4 -34 -10 -42 -6 -7 -8 -18 -4 -24 9 -15 -5 -71
-16 -64 -5 3 -5 13 1 24 5 10 10 22 10 27 -1 4 -8 -5 -16 -20 -14 -26 -14 -30
2 -42 16 -11 16 -15 5 -29 -8 -9 -20 -15 -26 -12 -7 2 -18 -1 -24 -7 -8 -8
-11 -7 -11 6 0 9 5 17 10 17 6 0 10 5 10 11 0 8 -5 8 -15 -1 -8 -7 -15 -19
-15 -28 0 -8 -3 -13 -6 -9 -3 3 -24 -1 -46 -9 -22 -8 -42 -14 -43 -14 -1 0 0
20 3 45 3 30 1 45 -7 45 -7 0 -11 -19 -11 -50 0 -27 -3 -50 -7 -51 -28 -3 -47
-9 -61 -21 -61 -50 -100 -87 -95 -91 2 -3 0 -8 -6 -12 -6 -3 -11 -2 -11 4 0
11 40 83 51 91 3 3 10 16 14 29 10 31 35 58 80 85 43 26 165 145 197 192 22
33 38 43 38 26 0 -5 -9 -19 -20 -32 -13 -14 -20 -37 -19 -59 0 -20 3 -30 6
-23 2 6 9 9 15 6 6 -4 6 1 -1 13 -8 15 -6 29 10 57 11 20 17 41 14 47 -8 12 4
51 14 44 5 -2 4 -26 -1 -52z m-340 -25 c17 -27 28 -48 24 -48 -7 0 -62 86 -62
97 0 8 0 8 38 -49z m-613 3 c-9 -8 -36 -10 -30 -2 2 4 11 8 20 8 8 0 13 -3 10
-6z m-75 -63 l-32 -33 27 38 c15 21 30 35 32 33 3 -3 -9 -20 -27 -38z m774
-13 c3 -8 1 -15 -4 -15 -6 0 -10 7 -10 15 0 8 2 15 4 15 2 0 6 -7 10 -15z
m-823 -48 c-10 -9 -11 -8 -5 6 3 10 9 15 12 12 3 -3 0 -11 -7 -18z m819 14 c0
-12 -20 -25 -27 -18 -7 7 6 27 18 27 5 0 9 -4 9 -9z m-850 -85 c0 -3 -4 -8
-10 -11 -5 -3 -10 -1 -10 4 0 6 5 11 10 11 6 0 10 -2 10 -4z m-42 -60 c-13
-19 -24 -33 -26 -32 -5 5 33 66 41 66 4 0 -3 -15 -15 -34z m992 -26 c-8 -5
-19 -10 -25 -10 -5 0 -3 5 5 10 8 5 20 10 25 10 6 0 3 -5 -5 -10z m-42 -12
c-2 -6 -11 -15 -19 -18 -8 -4 -29 -14 -46 -23 -18 -9 -33 -12 -33 -6 0 5 17
17 38 27 20 9 39 20 40 25 6 12 24 8 20 -5z m162 -12 c0 -3 -4 -8 -10 -11 -5
-3 -10 -1 -10 4 0 6 5 11 10 11 6 0 10 -2 10 -4z m-65 -56 c-12 -35 -13 -45
-3 -53 9 -6 8 -7 -4 -3 -20 6 -24 -14 -7 -31 8 -8 7 -13 -2 -18 -8 -6 -10 -4
-5 4 5 8 0 14 -13 18 -21 5 -30 23 -12 23 5 0 15 17 22 38 6 20 16 45 21 55
17 33 19 11 3 -33z m-359 -27 c-5 -5 -76 46 -76 53 0 3 18 -8 40 -22 22 -15
38 -29 36 -31z m328 21 c-7 -34 -41 -80 -52 -69 -4 4 -1 10 6 12 6 3 12 11 12
19 0 8 5 14 11 14 5 0 7 4 4 10 -6 10 13 55 21 47 2 -2 1 -17 -2 -33z m-757 4
c-3 -8 -6 -5 -6 6 -1 11 2 17 5 13 3 -3 4 -12 1 -19z m60 0 c-3 -8 -6 -5 -6 6
-1 11 2 17 5 13 3 -3 4 -12 1 -19z m523 13 c0 -5 -12 -17 -27 -26 l-28 -18 24
27 c26 28 31 31 31 17z m136 -16 c-9 -9 -16 -23 -16 -31 0 -8 -4 -14 -10 -14
-5 0 -7 -6 -4 -13 3 -8 -3 -20 -12 -28 -16 -13 -17 -11 -11 26 4 27 3 35 -3
25 -6 -9 -10 -10 -10 -3 0 7 17 24 37 37 39 27 56 27 29 1z m-1083 -52 c-7 -2
-10 -10 -7 -18 3 -7 0 -16 -6 -20 -20 -12 -23 4 -6 31 10 14 21 22 24 18 4 -3
2 -9 -5 -11z m1015 -3 c3 -7 0 -10 -6 -7 -5 4 -13 -3 -17 -16 -6 -19 -8 -20
-12 -4 -10 39 23 64 35 27z m-59 -42 c-11 -21 -11 -22 4 -9 10 7 17 10 17 5 0
-4 5 -3 12 4 14 14 28 16 28 3 0 -5 -15 -15 -32 -22 -18 -7 -36 -14 -40 -17
-12 -6 -10 23 3 55 6 15 13 23 16 16 2 -7 -1 -22 -8 -35z m-671 0 c1 -52 7
-83 17 -90 6 -5 3 -8 -6 -8 -44 0 -34 -149 20 -309 36 -108 39 -126 27 -140
-7 -9 -29 -45 -47 -80 l-33 -65 -13 69 c-20 112 -23 259 -7 390 9 66 19 127
23 135 5 8 4 28 -2 43 -6 20 -6 36 2 53 13 30 19 30 19 2z m645 -10 c-3 -15
-9 -25 -14 -22 -5 3 -9 -3 -10 -13 0 -12 -2 -13 -6 -5 -4 10 -9 8 -20 -7 -10
-16 -21 -19 -39 -15 -21 5 -26 1 -39 -30 -8 -20 -19 -36 -24 -36 -4 0 -30 -19
-57 -42 -51 -44 -34 -19 26 39 19 18 31 33 26 33 -16 0 81 89 119 108 22 11
41 19 42 19 1 -1 -1 -14 -4 -29z m-953 -7 c0 -5 -7 -11 -14 -14 -10 -4 -13 -1
-9 9 6 15 23 19 23 5z m1090 -36 c0 -13 -33 -54 -40 -50 -4 3 -10 -4 -13 -15
-3 -11 -10 -20 -15 -20 -6 0 -4 17 6 41 13 34 17 38 23 23 7 -18 8 -17 15 4 5
19 24 32 24 17z m-75 -52 c-5 -15 -7 -33 -6 -40 2 -12 -38 -39 -51 -35 -5 1
-8 -2 -8 -8 0 -5 -5 -10 -11 -10 -6 0 -8 8 -5 18 3 9 1 24 -4 32 -7 12 -12 11
-29 -5 -12 -10 -19 -21 -16 -23 3 -3 11 3 18 13 13 16 14 16 20 1 4 -9 2 -16
-3 -16 -6 0 -9 -3 -9 -7 3 -19 -2 -33 -11 -33 -5 0 -7 7 -4 15 7 18 -7 20 -25
3 -11 -11 -12 -8 -7 16 8 34 44 66 65 58 9 -3 12 -1 7 6 -4 7 -3 12 3 12 5 0
12 -6 14 -12 3 -7 6 -4 6 8 1 19 31 31 31 12 0 -4 -5 -8 -11 -8 -6 0 -9 -7 -5
-15 3 -8 1 -15 -4 -15 -6 0 -10 -7 -10 -16 0 -32 24 -7 37 40 8 27 17 46 20
43 3 -4 2 -19 -2 -34z m-151 19 c2 -4 -4 -13 -15 -20 -21 -13 -22 -12 -13 12
7 17 20 21 28 8z m-18 -106 c-6 -32 -5 -34 15 -29 16 5 20 3 14 -6 -4 -7 -16
-11 -26 -8 -11 3 -22 0 -27 -7 -4 -7 -20 -21 -36 -31 l-29 -19 8 23 c5 16 4
21 -4 17 -6 -4 -11 -14 -11 -22 0 -8 -4 -14 -10 -14 -5 0 -8 6 -7 13 2 6 -1 2
-7 -11 -10 -22 -27 -25 -32 -6 -4 13 90 86 94 74 2 -5 8 -10 13 -10 6 0 7 5 3
11 -5 9 31 56 45 58 2 1 0 -14 -3 -33z m79 -92 c-11 -8 -30 -23 -42 -34 -12
-10 -24 -16 -27 -13 -3 4 -6 -1 -6 -10 0 -9 -4 -17 -10 -17 -21 0 8 42 45 65
44 27 72 33 40 9z m-234 -27 c-1 -4 -2 -6 -4 -4 -1 1 -18 -13 -37 -30 -19 -18
-39 -33 -45 -33 -5 0 8 18 30 39 37 36 58 46 56 28z m136 -37 c-1 -23 -37 -62
-37 -41 0 11 29 61 36 61 1 0 2 -9 1 -20z m-45 -32 c-18 -38 -45 -62 -85 -79
-24 -10 -30 -10 -38 2 -7 11 -9 9 -9 -8 0 -13 -8 -24 -22 -29 -12 -3 -31 -15
-42 -26 -13 -11 -22 -15 -24 -8 -3 8 -9 7 -21 -3 -21 -18 -54 -30 -46 -17 3 6
13 10 21 10 8 0 14 4 14 8 0 12 61 55 77 55 7 0 13 6 13 13 0 7 9 16 20 19 11
3 20 11 20 16 0 5 4 9 9 9 5 0 7 -10 5 -22 -3 -15 1 -12 11 10 18 39 28 42 19
5 -7 -25 -6 -27 9 -15 9 8 13 20 10 29 -4 9 5 24 23 39 42 34 56 31 36 -8z
m-2052 -62 c0 -11 -19 -15 -25 -6 -3 5 1 10 9 10 9 0 16 -2 16 -4z m40 -16 c8
-5 11 -10 5 -10 -5 0 -17 5 -25 10 -8 5 -10 10 -5 10 6 0 17 -5 25 -10z m1007
-286 c-3 -3 -12 -4 -19 -1 -8 3 -5 6 6 6 11 1 17 -2 13 -5z"/>
<path d="M2688 1291 c-29 -28 -48 -56 -48 -70 0 -12 -4 -19 -10 -16 -6 4 -10
-6 -10 -23 0 -17 6 -32 15 -36 12 -4 15 5 15 48 0 63 12 72 48 39 14 -13 29
-23 33 -23 5 0 9 29 9 65 0 36 -1 65 -2 65 -2 -1 -24 -22 -50 -49z m38 -10 c0
-11 -3 -18 -7 -15 -4 2 -10 -4 -12 -13 -4 -15 -5 -15 -6 3 -1 15 15 44 24 44
0 0 1 -9 1 -19z"/>
<path d="M2672 1185 c0 -16 2 -22 5 -12 2 9 2 23 0 30 -3 6 -5 -1 -5 -18z"/>
<path d="M2691 1194 c0 -11 3 -14 6 -6 3 7 2 16 -1 19 -3 4 -6 -2 -5 -13z"/>
<path d="M2552 1178 c-6 -8 -6 -22 -1 -35 12 -31 16 -29 21 12 4 36 -2 44 -20
23z"/>
<path d="M2506 1138 c-10 -15 -16 -35 -13 -45 4 -14 5 -14 6 4 0 12 8 26 17
31 9 5 15 15 12 23 -3 9 -10 5 -22 -13z"/>
<path d="M1811 624 c-1 -30 35 -142 60 -184 24 -42 20 -27 -25 105 -19 55 -35
90 -35 79z"/>
<path d="M2412 890 c-7 -11 -8 -20 -3 -20 9 0 24 30 18 36 -1 2 -8 -6 -15 -16z"/>
<path d="M2286 545 c-9 -26 -7 -32 5 -12 6 10 9 21 6 23 -2 3 -7 -2 -11 -11z"/>
<path d="M1167 1823 c-26 -25 14 -70 50 -56 16 6 15 8 -7 13 -18 4 -25 13 -24
28 1 22 -7 28 -19 15z"/>
<path d="M1227 1765 c-17 -24 -17 -25 17 -39 18 -8 36 -18 40 -24 3 -6 31 -2
72 9 l66 18 19 -22 c10 -12 18 -19 19 -15 0 3 21 0 47 -8 25 -8 61 -14 80 -14
36 0 218 -40 296 -66 57 -18 74 -12 25 9 -42 18 -284 74 -361 83 -40 4 -67 14
-87 30 -32 27 -65 31 -86 9 -18 -17 -38 -20 -28 -4 3 6 -5 3 -19 -6 -25 -16
-27 -16 -51 2 -26 18 -35 43 -16 43 6 0 10 5 10 10 0 18 -25 10 -43 -15z"/>
<path d="M2509 1741 l-22 -18 26 -5 c23 -4 27 -2 27 18 0 29 -2 29 -31 5z"/>
<path d="M2315 1710 c-3 -6 1 -7 9 -4 18 7 21 14 7 14 -6 0 -13 -4 -16 -10z"/>
<path d="M2435 1710 c4 -6 11 -8 16 -5 14 9 11 15 -7 15 -8 0 -12 -5 -9 -10z"/>
<path d="M2661 1711 c-9 -6 -10 -11 -2 -15 6 -4 11 -4 11 0 0 4 9 -1 20 -11
26 -24 39 -11 15 15 -20 22 -24 23 -44 11z"/>
<path d="M2305 1680 c-3 -5 1 -10 9 -10 9 0 16 5 16 10 0 6 -4 10 -9 10 -6 0
-13 -4 -16 -10z"/>
<path d="M2405 1681 c-7 -12 12 -24 25 -16 6 3 7 -1 4 -9 -7 -19 -21 -21 -27
-3 -2 6 -8 8 -13 4 -5 -4 -2 -12 6 -17 14 -9 7 -14 -14 -11 -5 1 -6 -7 -3 -18
3 -14 -1 -21 -16 -25 -17 -4 -18 -7 -8 -20 9 -10 11 -28 7 -51 -12 -64 49
-285 75 -270 10 6 5 34 -25 155 -16 64 -20 101 -15 147 9 91 48 131 50 51 1
-79 15 -139 39 -161 l22 -22 -6 45 c-9 66 -11 74 -21 90 -5 8 -10 32 -11 52 0
27 -8 45 -28 63 -30 28 -32 29 -41 16z"/>
<path d="M2286 1643 c-6 -14 -5 -15 5 -6 7 7 10 15 7 18 -3 3 -9 -2 -12 -12z"/>
<path d="M2170 1632 c0 -5 7 -9 15 -9 8 0 15 4 15 9 0 4 -7 8 -15 8 -8 0 -15
-4 -15 -8z"/>
<path d="M923 1603 c-13 -8 -23 -20 -23 -25 0 -6 8 -4 17 3 9 8 14 9 11 4 -10
-16 6 -36 30 -38 12 -1 22 -6 22 -12 0 -5 9 -21 19 -35 19 -24 20 -24 56 -7
20 10 40 15 45 12 5 -3 18 -1 29 4 15 9 20 7 24 -10 3 -11 9 -18 14 -17 4 1
18 -3 31 -10 16 -9 27 -10 42 -2 11 6 20 7 20 3 0 -9 31 -13 103 -15 40 -1 54
-7 81 -34 23 -23 48 -35 91 -44 75 -15 215 -28 215 -19 0 9 -54 19 -100 19
-50 0 -181 30 -175 40 7 11 -52 60 -71 60 -9 0 -24 -5 -35 -10 -14 -8 -27 -6
-50 6 -22 11 -44 14 -73 10 -38 -6 -45 -4 -69 24 -22 24 -31 28 -49 21 -42
-16 -94 -31 -106 -31 -7 0 -12 11 -12 25 0 14 -6 25 -12 25 -9 0 -8 3 2 10 21
13 5 23 -18 11 -35 -19 -44 -14 -37 19 8 34 8 34 -22 13z m541 -182 c-2 -3
-12 3 -22 13 -16 17 -16 18 5 5 12 -7 20 -15 17 -18z"/>
<path d="M2145 1610 c3 -5 8 -10 11 -10 2 0 4 5 4 10 0 6 -5 10 -11 10 -5 0
-7 -4 -4 -10z"/>
<path d="M2278 1613 c-2 -4 -6 -26 -7 -48 -2 -22 -7 -45 -12 -51 -5 -6 -6 -14
-2 -18 10 -9 13 -85 3 -91 -11 -7 23 -95 37 -95 21 0 23 16 7 91 -8 40 -14
104 -13 141 2 63 -3 91 -13 71z"/>
<path d="M2312 1607 c0 -7 -3 -31 -5 -54 -6 -54 28 -214 52 -253 22 -33 21 4
0 100 -19 87 -21 103 -8 111 10 8 8 9 -9 4 -22 -6 -23 -5 -16 43 3 28 2 52 -3
55 -5 3 -10 1 -11 -6z"/>
<path d="M1993 1524 c-8 -22 5 -30 23 -12 14 14 14 16 -1 21 -9 4 -18 1 -22
-9z"/>
<path d="M1929 1473 c-13 -16 -12 -17 4 -4 9 7 17 15 17 17 0 8 -8 3 -21 -13z"/>
<path d="M2680 1480 c-9 -6 -10 -10 -3 -10 6 0 15 5 18 10 8 12 4 12 -15 0z"/>
<path d="M2672 1439 c2 -7 10 -15 17 -17 8 -3 12 1 9 9 -2 7 -10 15 -17 17 -8
3 -12 -1 -9 -9z"/>
<path d="M2620 1409 c-7 -11 -9 -28 -6 -37 5 -13 2 -12 -9 2 -15 19 -15 19
-15 -2 0 -22 25 -41 37 -28 7 7 14 86 7 86 -2 0 -8 -9 -14 -21z"/>
<path d="M1921 1343 c-43 -88 -129 -338 -149 -433 -46 -216 -51 -409 -15 -596
l15 -82 -26 -67 c-15 -36 -25 -72 -23 -78 3 -7 8 2 12 18 4 17 17 48 28 69 20
42 20 58 -2 206 -25 163 -18 343 19 510 28 124 92 316 145 436 31 69 28 82 -4
17z"/>
<path d="M776 1335 c-10 -15 -15 -32 -13 -38 2 -7 12 3 21 21 21 41 15 53 -8
17z"/>
<path d="M600 1301 c0 -5 5 -13 10 -16 6 -3 10 -2 10 4 0 5 -4 13 -10 16 -5 3
-10 2 -10 -4z"/>
<path d="M855 1293 c-27 -9 -62 -16 -77 -17 -29 -1 -36 -10 -17 -22 6 -3 21
-2 32 4 12 6 42 15 67 21 41 9 47 8 80 -17 33 -26 40 -27 155 -27 111 -1 124
-3 173 -28 50 -26 61 -28 153 -25 54 1 99 6 99 9 0 13 -24 16 -60 8 -84 -20
-192 4 -226 50 -10 13 -22 14 -75 5 -42 -7 -74 -8 -92 -1 -15 5 -39 6 -54 2
-20 -5 -34 1 -64 24 -21 17 -39 31 -41 30 -2 0 -25 -8 -53 -16z"/>
<path d="M2071 1244 c0 -11 3 -14 6 -6 3 7 2 16 -1 19 -3 4 -6 -2 -5 -13z"/>
<path d="M640 1073 c0 -22 93 -44 211 -49 151 -7 154 -7 215 -32 58 -24 124
-37 124 -24 0 6 -21 13 -46 17 -26 3 -63 15 -84 26 -30 16 -70 22 -186 28 -98
6 -162 14 -188 25 -44 18 -46 19 -46 9z"/>
<path d="M1970 917 c0 -44 112 -259 127 -243 2 2 -9 23 -25 47 -16 24 -45 82
-65 129 -20 47 -37 77 -37 67z"/>
<path d="M640 862 c0 -5 6 -16 13 -27 12 -15 23 -17 68 -13 l54 6 65 -69 c36
-37 78 -73 94 -78 35 -14 83 -14 91 -1 4 6 -10 10 -35 10 -23 0 -53 6 -68 14
-35 18 -80 66 -62 66 7 0 -5 13 -28 29 -22 16 -43 35 -47 41 -4 7 -24 8 -54 4
-39 -5 -49 -3 -54 10 -6 16 -37 23 -37 8z"/>
<path d="M245 415 c91 -24 205 -43 155 -25 -41 14 -207 50 -227 49 -10 0 22
-11 72 -24z"/>
<path d="M530 345 c181 -59 304 -95 340 -100 30 -4 31 -4 10 4 -14 5 -65 21
-115 35 -49 15 -139 42 -200 61 -60 20 -117 35 -125 34 -8 0 32 -16 90 -34z"/>
<path d="M955 220 c27 -12 43 -12 25 0 -8 5 -22 9 -30 9 -10 0 -8 -3 5 -9z"/>
<path d="M1085 190 c3 -5 8 -10 11 -10 2 0 4 5 4 10 0 6 -5 10 -11 10 -5 0 -7
-4 -4 -10z"/>
<path d="M1165 173 c6 -5 35 -15 65 -22 30 -7 63 -15 73 -18 9 -2 17 0 17 5 0
5 -29 14 -65 20 -35 7 -72 15 -82 19 -12 4 -14 3 -8 -4z"/>
<path d="M1711 54 c0 -11 3 -14 6 -6 3 7 2 16 -1 19 -3 4 -6 -2 -5 -13z"/>
<path d="M1730 30 c0 -5 4 -10 9 -10 6 0 13 5 16 10 3 6 -1 10 -9 10 -9 0 -16
-4 -16 -10z"/>
</g>
</svg>
